<?xml version="1.0" encoding="utf-8"?>
<!-- Generator: Adobe Illustrator 24.1.2, SVG Export Plug-In . SVG Version: 6.00 Build 0)  -->
<svg version="1.1" id="Layer_1" xmlns="http://www.w3.org/2000/svg" xmlns:xlink="http://www.w3.org/1999/xlink" x="0px" y="0px"
	 viewBox="0 0 2420.9 1786.5" style="enable-background:new 0 0 2420.9 1786.5;" xml:space="preserve">
<style type="text/css">
	.st0{fill:#FFFFFF;}
	.st1{fill:#669966;}
</style>
<path class="st0" d="M1144.7,1781.8c3.5-4.3,6.1-8.1,9.2-11.1c71.6-68.8,156.8-106.9,256.1-110.9c78.7-3.1,155.9-14.6,232.9-31
	c71.4-15.4,136-44.7,191-92.5c133.1-116.3,183-262.2,150.9-435.8c-9.2-49.9-27-97.2-56.1-139c-61.9-88.9-90.8-186.8-82.3-294.7
	c9.5-120.3,60.8-220.2,150.4-300.6c8-7.1,16.3-13.7,25-21.1c-106-93.7-211.4-186.8-317.1-280c-82.8,65.8-176.1,100.3-281.1,100.3
	c-105-0.2-198.1-35.2-278.5-98.9c-189,133.1-376,133.1-564.4,0C476.3,158.5,371,251.7,265.1,345.1c2.9,2.4,5,4.2,7.1,5.7
	c165.8,131.5,217.3,357.3,123.7,547c-12.3,25.1-29.5,47.8-43.5,72.3c-53.2,92.2-71.6,191.3-54.1,296
	c21.5,128.2,88.2,227.9,195.5,300.5c49.6,33.6,104.8,52.7,163.2,64.8c72.8,15.2,146.1,25.6,220.6,28.2c62,2.1,120.3,19.1,174.3,49.9
	C1085.9,1728.6,1116.1,1752.1,1144.7,1781.8z"/>
<path class="st0" d="M1144.7,1781.8c-28.6-29.5-58.7-53.2-92.2-72.3c-54.1-30.7-112.3-47.7-174.3-49.9
	c-74.5-2.6-147.8-13-220.6-28.2c-58.2-12.1-113.7-31.2-163.2-64.8c-107.3-72.8-174.1-172.2-195.5-300.5
	c-17.5-104.8,0.9-203.8,54.1-296c14-24.3,31-47.1,43.5-72.3c93.6-189.9,42.1-415.7-123.7-547c-2.1-1.6-4.2-3.3-7.1-5.7
	c105.9-93.6,211.2-186.6,315.5-278.8c188.4,133.1,375.5,132.9,564.4,0c80.4,63.8,173.5,98.8,278.5,98.9
	c105,0.2,198.2-34.5,281.1-100.3c105.5,93.2,211.1,186.4,317.1,280c-8.7,7.3-17,14-25,21.1c-89.6,80.4-140.9,180.4-150.4,300.6
	c-8.5,108,20.3,205.9,82.3,294.7c28.9,41.8,46.8,89.1,56.1,139c32.1,173.5-17.8,319.5-150.9,435.8c-54.9,48-119.6,77.3-191,92.5
	c-76.9,16.5-154.2,27.9-232.9,31c-99.3,4-184.5,42.1-256.1,110.9C1150.7,1773.6,1148.1,1777.4,1144.7,1781.8z"/>
<path d="M1145.5,1719.6c-0.9,0.5-0.3,0.2,0.2-0.2c1.7-1.2,3.3-2.6,4.9-4c74.2-60.8,159.1-94.8,254.9-98.8
	c70-2.9,139-11.4,207.4-25.8c45.2-9.5,89.4-21.5,130.3-44.4c155.1-87.5,233.8-256.1,200.5-431.8c-8.8-46.3-24.1-90.6-50.9-129.4
	c-71.2-102.8-101-215.7-87.7-340c1.2-11.3,2.8-22.4,4.3-33.8c-444.1,0-887.5,0-1331.5,0c0.3,3.6,0.7,6.8,1,10.1
	c2.1,19.4,5.4,38.6,6.1,58c4,107.8-23.6,206.9-84.4,296.1c-32.6,47.7-52.2,100.3-60.3,157c-14.7,101.2,4.7,195.8,61.2,281.2
	c54.2,81.8,127.7,138.8,223.4,164.8c82.7,22.4,166.9,34.7,252.6,37.6c66.9,2.4,130.3,18.9,188.7,51.8
	C1093.2,1683.3,1118.3,1701.7,1145.5,1719.6z"/>
<path class="st1" d="M1809.7,568c8.1,0,11.3-2.4,13.5-9.9c17.3-58,44.9-110.9,82.7-158.2c15.4-19.4,32.6-37.4,49.4-56.5
	c-83.9-74-168.3-148.5-252.6-223c-3.8,2.6-7.1,4.7-10.2,6.8c-75.5,49.7-158.4,77.3-248.8,80.7c-105.9,4-203.1-24.4-290.9-83.5
	c-6.9-4.7-10.9-4.3-17.8,0c-139.5,90.5-287.5,108.5-444.1,51.8c-37.6-13.7-72.3-32.9-105.7-56c-84.6,74.7-168.8,149.2-253.5,223.9
	c2.3,2.4,4,4.3,5.9,6.2c60.1,59.1,103.1,128.7,127.2,209.5c2.4,8,6.8,8,13,8"/>
<path class="st1" d="M1145.5,1719.6c-27.2-17.8-52.5-36.2-79.5-51.3c-58.4-32.9-121.8-49.4-188.7-51.8
	c-85.6-3.1-170-15.2-252.6-37.6c-95.6-26-169.1-83-223.4-164.8c-56.7-85.4-75.9-180-61.2-281.2c8.1-56.7,27.9-109.3,60.3-157
	c60.8-89.2,88.4-188.4,84.4-296.1c-0.7-19.4-4-38.6-6.1-58c-0.3-3.1-0.7-6.4-1-10.1c443.9,0,887.4,0,1331.5,0
	c-1.4,11.4-3.1,22.5-4.3,33.8c-13.3,124.2,16.6,237.2,87.7,340c26.9,38.8,42.3,83.2,50.9,129.4c33.3,175.5-45.4,344.1-200.5,431.8
	c-40.7,23-85.1,34.8-130.3,44.4c-68.4,14.4-137.4,22.9-207.4,25.8c-95.8,4.2-180.7,37.9-254.9,98.8
	C1148.8,1717,1147.1,1718.2,1145.5,1719.6C1145.4,1719.7,1144.8,1720.1,1145.5,1719.6z M1309.1,1111.9c0-58.7,0.2-117.5-0.2-176
	c0-4.2-2.1-9.2-5-12.3c-17-17.7-34.5-35-52-52.2c-2.6-2.6-6.9-4.9-10.6-4.9c-56-0.3-112.1-0.3-168.1,0c-3.5,0-7.6,1.7-10.1,4.2
	c-18,17.5-35.9,35.3-53.4,53.4c-2.6,2.6-4.3,7.1-4.3,10.7c-0.2,118-0.2,236,0,354c0,3.6,1.9,8.1,4.5,10.7
	c16.6,17.2,33.6,34.1,50.8,50.8c2.8,2.8,7.6,4.9,11.4,4.9c56.7,0.3,113.2,0.3,169.8,0c3.8,0,8.7-2.1,11.4-4.9
	c16.8-16.3,33.1-32.9,49.7-49.4c4.2-4,5.9-8.1,5.9-14C1308.9,1228.7,1309.1,1170.3,1309.1,1111.9z M904.5,866.3
	c-28.2,0-55.4-0.2-82.5,0.2c-2.4,0-5.4,2.4-6.9,4.5c-5.9,8.1-11.1,16.6-16.6,24.8c-28.4,41.2-57.2,82.5-85.6,123.9
	c-32.2,47-64.1,94.1-96.3,140.9c-2.9,4.2-2.9,7.6,0,11.8c15.2,21.7,30,43.5,45.6,64.8c1.9,2.6,6.6,4.5,10.1,4.5
	c44.9,0.3,89.9,0.2,134.8,0.2c3.1,0,6.2,0,10.1,0c0,38.5,0,75.4,0,112.6c29.5,0,58.4,0,88.2,0c0-37.8,0-75,0-113c17,0,33.1,0,49.4,0
	c0-28.9,0-57.2,0-86.5c-16.8,0-33.3,0-49.7,0C904.5,1058.8,904.5,963.2,904.5,866.3z M1640.1,866.3c-28.2,0-55.1-0.2-82,0.2
	c-2.6,0-6.1,2.4-7.8,4.7c-5.9,7.8-10.9,15.9-16.5,23.9c-28.6,41.6-57.4,83.2-85.8,124.8c-32.1,46.8-63.8,93.6-95.8,140.2
	c-3.5,5-3.3,8.3,0.2,13.2c15.1,21.3,29.6,43,44.9,64.1c1.9,2.6,6.6,4.5,10.1,4.5c43.1,0.3,86.3,0.2,129.4,0.2c4.7,0,9.4,0,15.1,0
	c0,38.1,0,75.4,0,112.6c29.8,0,58.7,0,88.2,0c0-37.6,0-74.7,0-112.8c17,0,33.3,0,49.4,0c0-29.3,0-57.5,0-86.5c-16.8,0-32.7,0-49.6,0
	C1640.1,1059.2,1640.1,963.4,1640.1,866.3z"/>
<path class="st0" d="M828.8,307.2c0,64.8,0,128.2,0,191.8c11.4,0,22,0,34,0c0-24.8,0-49.2,0-74c4.5,0,8,0.5,11.1-0.2
	c9.5-1.7,13.5,2.8,16.5,11.4c6.8,19.4,14.6,38.5,22.4,57.5c1,2.4,4.2,5.4,6.6,5.4c10.9,0.5,22,0.2,34.1,0.2
	c-6.9-17.2-13.3-33.4-19.9-49.6c-10.1-24.6-9.9-24.4,8.3-43.3c3.3-3.5,5.4-9,5.7-13.9c0.9-11.6,0.3-23.4,0.3-35
	c0-28.1,0-28.1-20.8-47.1c-1.7-1.6-4.5-3.3-6.8-3.3C889.8,307.2,859.6,307.2,828.8,307.2z M1396.8,440.4c18.7,0,36.4,0,54.1,0
	c2.6,0,6.1,0.2,7.6-1.2c11.4-11.6,25.1-20.4,24.3-41.6c-0.9-19.4-4.2-34.8-20.4-45.9c-3.5-2.3-7.6-4.7-11.6-4.9
	c-13.7-0.5-27.7,1-41.2-0.5c-17.3-1.9-30.3,3.3-41.1,17c-3.8,5-6.6,9.2-6.4,15.8c0.3,23.9,1.4,48-0.2,71.9
	c-1.2,18.4,2.8,32.9,18.4,43.1c3.8,2.6,8.7,5.2,13.2,5.4c19.4,0.5,39,0.3,58.4,0.2c7.1,0,29.5-20.3,30.2-27.4c0.2-1-0.3-2.3-0.5-4.2
	c-14.2,0-28.2,0-42.3,0c-13.9,0-27.9,0-41.9,0C1396.8,458.3,1396.8,450,1396.8,440.4z M973.6,422.7c0,9.5,1.2,19.4-0.2,28.8
	c-2.8,18.5,3.5,32.6,18.5,43c3.6,2.4,8.1,4.9,12.3,5c12.8,0.7,26-1.2,38.6,0.5c19.6,2.6,34.3-3.6,45.2-19.4c2.4-3.6,4.9-8.1,5-12.3
	c0.5-23.6-1-47.5,0.7-70.9c1.4-18.9-3.3-33.4-18.7-44.9c-4.5-3.3-8.1-5.9-14-5.7c-13.2,0.3-26.5,1.4-39.5-0.2
	c-17.7-2.1-31,3.3-41.8,17.3c-3.6,4.7-6.2,8.7-6.1,14.9C974,393.3,973.6,408,973.6,422.7z M1204.3,347c0,40,0,79.2,0,118.5
	c-16.3,0-31.4,0-47.3,0c0-39.9,0-79,0-118.5c-11.6,0-22.4,0-34.1,0c0,3.6,0,6.8,0,10.1c0,31.2,1.2,62.4-0.5,93.4
	c-1,19.1,3.8,33.4,19.1,44.7c5.9,4.3,42.3,6.6,48,1.9c0.5-0.3,0.9-0.9,1.2-1.2c14.2-13.3,14.2-13.2,30.8-2.6
	c4.9,3.1,10.4,5.4,17,8.7c0-53.4,0-103.8,0-154.7C1227.5,347,1216.8,347,1204.3,347z M1308.4,296.6c-0.9-0.9-1.7-1.7-2.6-2.6
	c-7.5,3.3-14.7,7.1-22.2,9.9c-7.6,2.8-10.9,7.3-9.7,15.4c2.6,18-1.6,34.1-14.6,47.7c-2.6,2.6-2.6,7.6-4.2,12.5
	c7.3,0.3,12.5,0.7,18.7,0.9c0,4,0,7.1,0,10.4c0,21,1.2,41.9-0.3,62.9c-1.2,16.5,2.9,29.1,16.5,38.6c3.3,2.3,6.4,6.6,9.9,6.8
	c13.7,0.9,27.4,0.3,41.2,0.3c0-11.4,0-21.8,0-33.4c-10.9,0-21.5,0-32.1,0c0-29.3,0-57.2,0-86.1c11.1,0,21.5,0,32.1,0
	c0-11.6,0-22.2,0-33.6c-10.9,0-21.3,0-32.6,0C1308.4,329.4,1308.4,313.1,1308.4,296.6z"/>
<path class="st0" d="M1309.1,1111.9c0,58.4,0,116.8,0.2,175.2c0,5.9-1.7,9.9-5.9,14c-16.8,16.3-32.9,33.1-49.7,49.4
	c-2.8,2.8-7.6,4.7-11.4,4.9c-56.7,0.3-113.2,0.3-169.8,0c-3.8,0-8.7-2.1-11.4-4.9c-17.3-16.6-34.1-33.6-50.8-50.8
	c-2.6-2.6-4.5-7.1-4.5-10.7c-0.2-118-0.2-236,0-354c0-3.6,1.9-8.1,4.3-10.7c17.5-18,35.3-35.9,53.4-53.4c2.4-2.4,6.6-4.2,10.1-4.2
	c56-0.2,112.1-0.3,168.1,0c3.6,0,8,2.3,10.6,4.9c17.7,17.2,35,34.5,52,52.2c2.9,2.9,5,8.1,5,12.3
	C1309.1,994.4,1309.1,1053.1,1309.1,1111.9z M1220.6,953.3c-42.8,0-84.7,0-126.5,0c0,106.2,0,211.7,0,317.1c42.5,0,84.4,0,126.5,0
	C1220.6,1164.5,1220.6,1059.2,1220.6,953.3z"/>
<path class="st0" d="M904.5,866.3c0,96.9,0,192.5,0,289c16.6,0,32.9,0,49.7,0c0,29.3,0,57.5,0,86.5c-16.1,0-32.2,0-49.4,0
	c0,37.9,0,75.2,0,113c-29.8,0-58.7,0-88.2,0c0-37.3,0-74.3,0-112.6c-3.8,0-6.9,0-10.1,0c-44.9,0-89.9,0.2-134.8-0.2
	c-3.5,0-8.1-1.9-10.1-4.5c-15.4-21.5-30.3-43.3-45.6-64.8c-2.9-4.2-2.9-7.5,0-11.8c32.2-47,64.1-94.1,96.3-140.9
	c28.4-41.4,57-82.7,85.6-123.9c5.7-8.1,10.9-16.6,16.6-24.8c1.6-2.1,4.7-4.5,6.9-4.5C849.1,866.2,876.3,866.3,904.5,866.3z
	 M816.1,1018.8c-0.5-0.2-1-0.3-1.6-0.7c-30.7,45.4-61.3,91-92.4,137.1c32.2,0,62.9,0,93.9,0C816.1,1109.4,816.1,1064,816.1,1018.8z"
	/>
<path class="st0" d="M1640.1,866.3c0,97,0,192.9,0,289.2c16.6,0,32.7,0,49.6,0c0,28.9,0,57.2,0,86.5c-16.3,0-32.6,0-49.4,0
	c0,37.9,0,75,0,112.8c-29.5,0-58.4,0-88.2,0c0-37.3,0-74.5,0-112.6c-5.7,0-10.4,0-15.1,0c-43.1,0-86.3,0.2-129.4-0.2
	c-3.5,0-8.1-1.9-10.1-4.5c-15.2-21.1-29.8-43-44.9-64.1c-3.5-4.9-3.6-8.1-0.2-13.2c32.1-46.6,63.8-93.6,95.8-140.2
	c28.6-41.6,57.2-83.2,85.8-124.8c5.5-8,10.7-16.1,16.5-23.9c1.7-2.3,5-4.7,7.8-4.7C1585,866.2,1611.8,866.3,1640.1,866.3z
	 M1551.4,1016.1c-32.1,47.5-62.6,92.9-93.7,139c32.2,0,63.1,0,93.7,0C1551.4,1109.1,1551.4,1063.9,1551.4,1016.1z"/>
<path class="st0" d="M828.8,307.2c30.8,0,61,0,91.3,0.2c2.3,0,5,1.6,6.8,3.3c21,19.1,20.8,19.1,20.8,47.1c0,11.6,0.5,23.4-0.3,35
	c-0.3,4.9-2.4,10.4-5.7,13.9c-18.2,18.9-18.4,18.7-8.3,43.3c6.6,16.3,13,32.6,19.9,49.6c-12.1,0-23,0.3-34.1-0.2
	c-2.3-0.2-5.5-3.1-6.6-5.4c-7.8-19.1-15.6-38.1-22.4-57.5c-2.9-8.7-6.9-13.2-16.5-11.4c-3.1,0.5-6.6,0.2-11.1,0.2c0,25,0,49.2,0,74
	c-12,0-22.5,0-34,0C828.8,435.6,828.8,372,828.8,307.2z M911.8,390.3c0-17,0-33.1,0-49c-16.8,0-32.7,0-48.7,0c0,16.8,0,32.6,0,49
	C879.4,390.3,895.2,390.3,911.8,390.3z"/>
<path class="st0" d="M1396.8,440.4c0,9.5,0,17.8,0,27.7c14.2,0,28.1,0,41.9,0c14,0,28.1,0,42.3,0c0.3,1.9,0.7,2.9,0.5,4.2
	c-0.7,7.1-23,27.4-30.2,27.4c-19.4,0-39,0.3-58.4-0.2c-4.5-0.2-9.2-2.8-13.2-5.4c-15.4-10.2-19.6-24.8-18.4-43.1
	c1.6-23.9,0.7-47.8,0.2-71.9c-0.2-6.6,2.6-10.7,6.4-15.8c10.7-13.9,23.6-19.1,41.1-17c13.7,1.6,27.6,0,41.2,0.5
	c4,0.2,8.1,2.4,11.6,4.9c16.3,11.1,19.6,26.5,20.4,45.9c0.9,21.1-12.6,30-24.3,41.6c-1.4,1.6-5,1.2-7.6,1.2
	C1433.2,440.4,1415.5,440.4,1396.8,440.4z M1446.2,381c-17,0-33.1,0-49,0c0,9.5,0,18.4,0,27.2c16.6,0,32.6,0,49,0
	C1446.2,398.8,1446.2,390.3,1446.2,381z"/>
<path class="st0" d="M973.6,422.7c0-14.7,0.3-29.3-0.2-44c-0.2-6.2,2.4-10.2,6.1-14.9c10.9-14,24.1-19.4,41.8-17.3
	c13,1.6,26.3,0.5,39.5,0.2c5.9-0.2,9.5,2.4,14,5.7c15.4,11.4,20.1,26,18.7,44.9c-1.7,23.6-0.2,47.3-0.7,70.9c0,4.2-2.4,8.7-5,12.3
	c-10.9,15.8-25.6,22-45.2,19.4c-12.6-1.7-25.8,0.2-38.6-0.5c-4.2-0.2-8.7-2.6-12.3-5c-15.1-10.4-21.3-24.4-18.5-43
	C974.9,442,973.6,432.3,973.6,422.7z M1057.7,381c-17,0-33.1,0-49,0c0,28.8,0,56.7,0,84.6c16.6,0,32.6,0,49,0
	C1057.7,437.1,1057.7,409.6,1057.7,381z"/>
<path class="st0" d="M1204.3,347c12.5,0,23.2,0,34.3,0c0,50.9,0,101.4,0,154.7c-6.6-3.3-12.1-5.5-17-8.7
	c-16.6-10.6-16.6-10.7-30.8,2.6c-0.5,0.3-0.9,0.9-1.2,1.2c-5.7,4.7-42.1,2.6-48-1.9c-15.2-11.3-20.1-25.6-19.1-44.7
	c1.7-31,0.5-62.2,0.5-93.4c0-3.3,0-6.4,0-10.1c11.8,0,22.5,0,34.1,0c0,39.5,0,78.5,0,118.5c15.9,0,31,0,47.3,0
	C1204.3,426.2,1204.3,387.1,1204.3,347z"/>
<path class="st0" d="M1308.4,296.6c0,16.3,0,32.7,0,49.7c11.3,0,21.7,0,32.6,0c0,11.4,0,22,0,33.6c-10.6,0-21,0-32.1,0
	c0,28.9,0,56.8,0,86.1c10.6,0,21.1,0,32.1,0c0,11.6,0,22,0,33.4c-13.9,0-27.6,0.5-41.2-0.3c-3.5-0.2-6.4-4.5-9.9-6.8
	c-13.5-9.5-17.7-22.2-16.5-38.6c1.6-20.8,0.3-41.9,0.3-62.9c0-3.3,0-6.4,0-10.4c-6.2-0.3-11.4-0.5-18.7-0.9
	c1.6-4.9,1.6-9.9,4.2-12.5c13-13.5,17.2-29.6,14.6-47.7c-1.2-8.3,2.1-12.6,9.7-15.4c7.6-2.8,14.9-6.6,22.2-9.9
	C1306.7,294.9,1307.6,295.7,1308.4,296.6z"/>
<path class="st1" d="M1220.6,953.3c0,106,0,211.2,0,317.1c-42.3,0-84,0-126.5,0c0-105.4,0-210.9,0-317.1
	C1135.8,953.3,1177.8,953.3,1220.6,953.3z"/>
<path class="st1" d="M816.1,1018.8c0,45.4,0,90.6,0,136.5c-31,0-61.7,0-93.9,0c31.2-46.3,61.7-91.7,92.4-137.1
	C815.1,1018.3,815.6,1018.6,816.1,1018.8z"/>
<path class="st1" d="M1551.4,1016.1c0,47.8,0,93.1,0,139c-30.7,0-61.5,0-93.7,0C1488.6,1108.9,1519.3,1063.5,1551.4,1016.1z"/>
<path class="st1" d="M911.8,390.3c-16.5,0-32.2,0-48.7,0c0-16.3,0-32.2,0-49c15.9,0,31.9,0,48.7,0
	C911.8,357.2,911.8,373.4,911.8,390.3z"/>
<path class="st1" d="M1446.2,381c0,9.4,0,18,0,27.2c-16.3,0-32.2,0-49,0c0-8.8,0-17.5,0-27.2C1413.1,381,1429.2,381,1446.2,381z"/>
<path class="st1" d="M1057.7,381c0,28.6,0,56.3,0,84.6c-16.5,0-32.4,0-49,0c0-27.9,0-55.8,0-84.6C1024.8,381,1040.9,381,1057.7,381z
	"/>
</svg>
