<?xml version="1.0" encoding="utf-8"?>
<!-- Generator: Adobe Illustrator 24.1.2, SVG Export Plug-In . SVG Version: 6.00 Build 0)  -->
<svg version="1.1" id="Layer_1" xmlns="http://www.w3.org/2000/svg" xmlns:xlink="http://www.w3.org/1999/xlink" x="0px" y="0px"
	 viewBox="0 0 1440 320" style="enable-background:new 0 0 1440 320;" xml:space="preserve">
<style type="text/css">
	.st0{fill:#597FA5;}
</style>
<path class="st0" d="M0,96l30,32c30,32,90,96,150,128s120,32,180,0s120-96,180-106.7c60-10.3,120,31.7,180,37.4
	c60,5.3,120-26.7,180-48c60-21.7,120-31.7,180-26.7s120,27,180,53.3c60,26.7,120,58.7,150,74.7l30,16V0h-30c-30,0-90,0-150,0
	s-120,0-180,0S960,0,900,0S780,0,720,0S600,0,540,0S420,0,360,0S240,0,180,0S60,0,30,0H0V96z"/>
</svg>
