<?xml version="1.0" encoding="utf-8"?>
<!-- Generator: Adobe Illustrator 24.1.2, SVG Export Plug-In . SVG Version: 6.00 Build 0)  -->
<svg version="1.1" id="Layer_1" xmlns="http://www.w3.org/2000/svg" xmlns:xlink="http://www.w3.org/1999/xlink" x="0px" y="0px"
	 viewBox="0 0 1440 320" style="enable-background:new 0 0 3000 500;" xml:space="preserve">
<style type="text/css">
	.st0{fill:#0fbcf9;}
</style>
<path class="st0" d="M 0 192 L 12.6 181.3 C 25.3 171 51 149 76 128 C 101.1 107 126 85 152 69.3 C 176.8 53 202 43 227 48 C 252.6 53 278 75 303 69.3 C 328.4 64 354 32 379 32 C 404.2 32 429 64 455 90.7 C 480 117 505 139 531 165.3 C 555.8 192 581 224 606 229.3 C 631.6 235 657 213 682 208 C 707.4 203 733 213 758 197.3 C 783.2 181 808 139 834 128 C 858.9 117 884 139 909 133.3 C 934.7 128 960 96 985 117.3 C 1010.5 139 1036 213 1061 245.3 C 1086.3 277 1112 267 1137 245.3 C 1162.1 224 1187 192 1213 186.7 C 1237.9 181 1263 203 1288 192 C 1313.7 181 1339 139 1364 128 C 1389.5 117 1415 139 1427 149.3 L 1440 160 L 1440 0 L 1427.4 0 C 1414.7 0 1389 0 1364 0 C 1338.9 0 1314 0 1288 0 C 1263.2 0 1238 0 1213 0 C 1187.4 0 1162 0 1137 0 C 1111.6 0 1086 0 1061 0 C 1035.8 0 1011 0 985 0 C 960 0 935 0 909 0 C 884.2 0 859 0 834 0 C 808.4 0 783 0 758 0 C 732.6 0 707 0 682 0 C 656.8 0 632 0 606 0 C 581.1 0 556 0 531 0 C 505.3 0 480 0 455 0 C 429.5 0 404 0 379 0 C 353.7 0 328 0 303 0 C 277.9 0 253 0 227 0 C 202.1 0 177 0 152 0 C 126.3 0 101 0 76 0 C 50.5 0 25 0 13 0 L 0 0 Z"/>
</svg>
